<svg width="330" height="560" viewBox="0 0 330 560" fill="none" xmlns="http://www.w3.org/2000/svg">
    <g clip-path="url(#clip0_21713_3050)">
        <path
            d="M193.7 114.3C192.2 112.9 193.2 110.6 197.4 105.1C203 97.8004 213.4 88.2004 216.4 87.4004C220.6 86.4004 223.5 87.3004 223.8 89.8004C224.2 92.4004 222.2 98.0004 220.9 98.0004C220.5 98.0004 217.9 100.2 215.3 102.8C206.3 111.8 196.4 117.1 193.7 114.3Z"
            fill="#F8F6F2" />
        <path
            d="M265.5 356C262.8 355.5 234.4 355.1 202.5 355.1C170.6 355 134.7 354.7 122.7 354.3C103.5 353.8 101 353.5 101 352C101 351.1 103.3 349.2 106.7 347.4C109.8 345.8 112.8 343.7 113.3 342.9C114.7 340.6 110.8 335.3 107.1 334.5C105.5 334.2 103.2 332.8 102 331.5C100 329.4 99.8 328.7 100.8 326.5C101.9 324.2 101.8 324 99.6 324C96.9 324 94 321.1 94 318.4C94 316.6 99.2 310.7 109.2 301.2C111.9 298.7 114 296.2 114 295.5C114 294.9 120 288.5 127.2 281.4C145.2 263.9 168 248.5 187.3 240.9C194.8 237.9 210.8 235 219.8 235C231.8 235 248.7 236.9 254.6 238.9C274.3 245.5 301.5 269.9 308.9 287.6C314.1 299.9 317.2 311.8 317.3 320C317.5 327.1 317.4 327.5 315.2 327.8C313.9 328 312.2 327.6 311.5 327C309.2 325.1 305.3 326.7 302.9 330.6C301.7 332.6 298.7 335.5 296.2 337.1C291.3 340.2 289 343.7 289 348.1C289 350.3 289.6 351.3 291.5 352C293 352.6 294 353.7 294 355C294 356.9 293.4 357 282.3 356.9C275.8 356.8 268.3 356.4 265.5 356Z"
            fill="#AFBCBF" />
        <path
            d="M187.4 138C183.8 136.6 181 132.1 181 127.8C181 123 183.4 118 185.8 118C188.4 118 192 120.9 192 122.9C192 123.9 192.9 125.5 194 126.5C195.1 127.5 196 129.4 196 130.7C196 132 196.6 133.9 197.3 135C198.3 136.7 198.2 137.2 197 138C195.2 139.2 190.3 139.2 187.4 138Z"
            fill="#AFBCBF" />
        <path
            d="M192.4 115.7C192.1 114.9 192 112.9 192.2 111.3C192.4 109.2 193.1 108.4 195 108.1C197.5 107.8 197.5 107.8 195.6 109.8C193.6 112.1 194.2 114 196.8 114C199.3 114 208.6 107.5 214.3 101.8C219.1 97 221 96 221 98.2C221 99.8 211.6 108.8 205.7 112.9C200.1 116.7 193.4 118.2 192.4 115.7Z"
            fill="#AFBCBF" />
        <path
            d="M292.599 355.6C292.899 354.7 292.099 353.7 290.399 352.8C286.999 351.2 286.599 348 288.999 342.5C290.199 339.9 292.099 337.8 294.599 336.5C296.699 335.4 299.599 332.7 301.199 330.6C305.699 324.4 307.299 323.6 311.399 325.5C313.299 326.4 315.399 326.9 316.099 326.4C318.899 324.7 314.499 304.2 307.899 288.6C301.999 274.6 285.799 257.9 266.999 246.6C255.499 239.6 249.999 238 232.799 236.7C203.199 234.5 186.099 239.6 155.999 259.8C144.899 267.2 138.399 272.6 128.299 282.4C120.999 289.5 114.999 295.9 114.999 296.5C114.999 297.2 112.899 299.7 110.299 302.2C101.699 310.3 94.9995 317.5 94.9995 318.6C94.9995 320 98.2995 323 99.8995 323C100.599 323 102.299 322.1 103.699 321C106.799 318.6 109.299 318.4 110.999 320.5C112.399 322.2 110.999 322.6 109.299 320.9C107.699 319.3 104.199 321.5 102.599 325.3C101.399 328.2 101.499 328.7 103.299 330.7C104.399 331.9 106.599 333.2 108.199 333.5C110.099 334 111.999 335.6 113.699 338.1C116.199 341.8 116.199 342.1 114.599 343.9C113.599 345 110.399 347.1 107.399 348.6C103.899 350.4 102.099 351.8 102.399 352.7C102.799 353.7 98.1 357.8 84.5 357.8C67.5 357.8 67.5 357.8 67.5 354.5C67.5 352.2 69.7995 346.6 71.4995 345C72.8995 343.7 75.2995 339.9 76.8995 336.6C80.0995 329.9 93.5995 314.6 121.399 286.2C136.599 270.6 141.399 266.7 160.899 253.7C170.399 247.3 186.799 239.5 194.499 237.6C216.099 232.4 217.399 232.3 239.299 234.9C252.299 236.4 259.199 238.7 268.799 244.7C297.699 262.8 312.599 284 318.499 314.9C320.999 327.7 319.799 345.2 315.999 352.2C315.399 353.2 315.999 359.7 315.999 360.5C315.999 361.7 313.099 357 303.499 357C294.099 357 292.199 356.8 292.599 355.6Z"
            fill="#A6B8BC" />
        <path
            d="M187.3 138.5C183.6 136.9 180 131.7 180 127.9C180 126.4 180.6 123.7 181.4 121.8C183.2 117.5 191.7 108 193.7 108C194.9 108 196 107.9 195 109C194.4 109.8 193 111.9 193.2 113.2C193.4 115.1 194.1 115.5 196.7 115.4C202.3 115.1 216.5 103.6 220.5 96C224.2 89.1 222.9 86.8999 215.1 89.0999C212.2 89.8999 213.1 86.2999 217.2 80.6999C222.6 73.3999 224.6 73.1999 231.4 79.6999C240.8 88.7999 243 91.3999 243 93.2999C243 96.8999 212.7 128.1 201.7 135.8C195.3 140.3 192.5 140.8 187.3 138.5ZM195.8 137.1C196.8 136.5 196.8 136.1 195.7 135.2C194.9 134.5 194.5 133 194.7 131.7C195 130.3 194.4 128.8 193.1 127.6C191.9 126.5 191 124.9 191 123.9C191 122.3 187.6 119 185.8 119C184.5 119 182 124.8 182 127.8C182 134.3 190.9 140.3 195.8 137.1Z"
            fill="#9EB0B6" />
        <path
            d="M54.0003 539C51.0003 536.4 49.8003 536 44.7003 536C39.4003 536 38.5003 535.6 34.4003 532.3C29.5003 528.2 29.7003 529 31.9003 518.7C32.8003 514.8 32.7003 513.3 31.5003 511C29.6003 507.4 29.6003 504.9 31.4003 501.3C32.2003 499.8 33.1003 497.7 33.5003 496.6C33.9003 495.1 34.8003 494.9 38.3003 495.2C41.2003 495.5 43.4003 495.1 45.5003 493.8C49.5003 491.4 51.5003 491.5 56.7003 494.6C60.7003 496.9 61.4003 497 64.7003 495.9C66.7003 495.3 71.0003 493 74.3003 490.9C81.1003 486.5 81.6003 486.4 86.5003 488.7C89.9003 490.3 90.3003 490.3 93.6003 488.5C101.6 484.2 114.3 469.9 112.5 467C112.3 466.7 110.1 465.4 107.6 464.1C103.1 461.9 101.4 459 104.5 459C105.4 459 108.3 460.1 111.1 461.5C113.8 462.9 116.5 463.8 116.9 463.5C118.9 462.3 124.1 464.3 125.3 466.9C126.6 469.7 137.4 475.7 146.5 478.8C151.2 480.4 151.6 480.8 154 486.7C155.4 490.1 157.3 493.7 158.3 494.8C159.2 495.8 160 497.7 160 499.1C159.9 501.1 158.6 502.1 152.2 505.2C139.8 511.1 124.1 518 123.1 518C122.6 518 120.2 519.5 117.8 521.3C111.8 525.8 99.5003 532 96.6003 532C95.2003 532 91.3003 533.5 87.7003 535.3C80.1003 539.3 74.5003 540.8 64.8003 541.5C57.8003 542.1 57.4003 542 54.0003 539Z"
            fill="#F1A15F" />
        <path
            d="M137.401 462.1C130.601 454.5 127.901 447 131.501 445.6C132.301 445.3 133.001 444.4 133.001 443.5C133.001 442.7 133.501 442 134.001 442C134.701 442 134.801 440.2 134.401 437C134.001 433.7 134.101 432 134.801 432C135.401 432 136.601 429.8 137.401 427C138.401 423.8 140.101 421 142.401 419C145.901 415.9 150.001 406.3 150.001 401.2C150.001 399.9 150.501 398 151.001 397C151.901 395.4 151.501 394.6 149.401 392.8C145.101 389.2 141.001 385.1 141.001 384.5C141.001 384.2 139.901 382.3 138.601 380.2C136.201 376.4 134.201 363.7 135.801 361.4C136.201 360.8 139.701 359.9 143.501 359.5C153.401 358.3 196.201 358.9 197.801 360.2C198.401 360.8 199.001 362.1 199.001 363.1C199.001 365.7 192.401 375.7 190.201 376.4C188.001 377.1 185.001 383 184.001 388.5C183.601 390.7 182.901 393.3 182.501 394.3C181.901 395.7 182.401 396 185.701 396C188.901 396 190.001 396.5 192.001 399.1C194.501 402.6 195.901 407.1 196.701 413.7C197.101 417.2 196.901 418.1 195.401 418.6C194.301 419 190.601 421.2 187.001 423.5C183.401 425.9 178.301 429 175.501 430.6C166.301 435.6 163.201 437.9 162.501 440C162.201 441.1 160.601 442.7 159.001 443.5C154.901 445.6 151.201 452.6 151.701 457.5C152.001 461.2 151.801 461.7 148.101 464.3C146.001 465.8 143.601 467 142.801 466.9C142.101 466.8 139.601 464.7 137.401 462.1Z"
            fill="#F1A15F" />
        <path
            d="M269.9 416.3C269 414.1 269.2 412.5 270.5 409C271.5 406.5 272.5 403.4 272.8 402C273 400.6 274.2 398.6 275.3 397.6C276.4 396.5 278.3 393.2 279.7 390.1C282.5 383.6 282.3 384 287.3 376.7C289.4 373.6 292.9 369.5 295.1 367.5C298.4 364.5 299.8 363.9 302.8 364.2C307.7 364.6 307.9 366.4 304 378.7C301.1 387.9 299.8 391 294.3 400.8C291.7 405.4 275.8 419 273 419C271.7 419 270.6 418 269.9 416.3Z"
            fill="#F1A15F" />
        <path
            d="M6.14042 556.108C1.14042 551.608 0.540416 549.508 1.24042 541.008C3.64042 513.308 13.8404 489.208 33.6404 464.808C39.8404 457.208 41.7404 453.408 40.1404 451.808C39.6404 451.308 36.3404 450.608 32.7404 450.308C27.2404 449.808 25.7404 449.208 23.2404 446.708C18.4404 442.008 18.9404 438.308 27.2404 414.808C34.3404 394.808 34.1404 395.308 42.7404 377.608C46.6404 369.408 50.2404 362.808 50.8404 362.808C51.3404 362.808 51.7404 362.208 51.7404 361.508C51.7404 360.808 52.5404 359.308 53.5404 358.208C54.5404 357.208 58.1404 352.208 61.5404 347.308C81.2404 318.408 101.14 295.308 127.34 270.808C139.34 259.608 150.94 250.308 161.74 243.308C169.54 238.208 184.54 230.808 186.94 230.808C187.74 230.808 188.74 230.408 189.34 230.008C194.14 225.808 225.44 223.408 239.04 226.208C263.84 231.408 283.04 242.008 300.14 259.908C305.44 265.508 309.74 270.608 309.74 271.308C309.74 272.008 310.44 273.108 311.24 273.808C313.44 275.608 321.14 291.308 323.54 298.908C327.14 310.408 327.74 314.508 327.74 329.008C327.74 348.808 324.34 366.208 316.94 383.808C309.24 402.208 293.04 427.908 280.74 441.208C265.04 458.308 249.64 472.908 238.94 480.908C235.74 483.308 231.64 486.308 229.74 487.808C225.04 491.408 199.74 508.308 195.04 511.008C187.44 515.408 161.04 528.508 155.24 530.808C151.94 532.108 148.84 533.408 148.24 533.808C147.34 534.308 139.44 536.908 114.14 544.908C110.74 545.908 104.44 547.508 100.14 548.308C95.7404 549.108 90.4404 550.208 88.2404 550.708C71.8404 554.408 63.2404 555.608 43.7404 556.808C35.2404 557.208 23.9404 557.908 18.7404 558.308C9.34042 558.908 9.24042 558.908 6.14042 556.108ZM39.5404 550.808C60.3404 548.608 68.5404 547.608 75.7404 546.308C89.5404 543.808 107.14 539.108 119.24 534.808C125.84 532.508 136.24 528.908 142.24 526.808C155.84 522.208 181.84 509.708 191.04 503.408C194.84 500.808 200.24 497.608 203.04 496.208C208.74 493.508 227.84 480.108 240.24 470.108C252.14 460.508 274.64 438.108 282.44 428.108C286.14 423.208 290.44 418.008 292.04 416.408C295.54 412.808 306.34 390.408 308.44 382.508C309.24 379.208 311.04 373.708 312.34 370.208C314.84 363.608 316.44 358.6 314.74 357.5C314.5 357 316 351.5 316 351.5C316 351.5 319.64 327.108 317.24 314.708C313.84 296.708 307.04 281.508 297.44 270.108C288.84 259.908 280.04 252.308 267.54 244.508C257.94 238.508 251.04 236.208 238.04 234.708C216.64 232.208 216.84 232.208 195.24 237.408C183.44 240.308 169.04 248.108 146.14 264.008C132.44 273.708 82.3404 326.208 78.1404 335.508C78.1404 335.508 74.4404 342.208 72.6404 344.208C70.5 347 70.5 347.5 69.9404 350.308C69.5 352 69 353.5 68.1404 354.908C64.2404 358.608 54.9404 373.008 50.7404 382.108C48.5404 386.808 44.2404 397.408 41.2404 405.508C38.2404 413.608 34.7404 423.008 33.3404 426.308C31.9404 429.608 30.5404 434.608 30.2404 437.408C29.5404 442.508 29.5404 442.508 33.3404 443.108C35.5404 443.508 40.6404 443.808 44.8404 443.808C57.7404 443.808 57.9404 446.808 46.4404 461.108C32.7404 478.108 29.1404 483.008 25.7404 489.808C18.0404 505.108 11.7404 527.208 10.1404 544.608C9.54042 551.808 9.54042 551.808 19.7404 551.808C25.3404 551.808 34.2404 551.308 39.5404 550.808Z"
            fill="#78A6BC" />
        <path
            d="M182.5 221.1C172.6 218 163 205.4 163 195.5C163 191.3 165.7 183.5 168.9 178.5C172.3 173 179.9 164 181.1 164C183 164 181 167.3 177.5 172.5C175.5 175.5 173.4 181.3 171.8 184.9C169.3 190.3 168.9 192.4 169.2 197.1C170.4 213.8 188.9 222.6 201 212.3C204.7 209.2 206.1 206.7 207.1 201.7C208 196.5 206.7 191.2 202 181.8C195.8 169.5 197 165.5 203.7 175.8C209.3 184.2 211.6 189.7 212.6 196.9C213.1 201.2 212.8 202.8 210.7 207.2C207.3 214 202.8 218.8 197.4 221.2C192.6 223.3 189.6 223.3 182.5 221.1Z"
            fill="#78A6BC" />
        <path
            d="M188.4 150.1C186.1 149.2 183.7 148 182.9 147.4C182.1 146.8 180.8 146 179.8 145.7C177.8 145 172 136.7 172 134.6C172 133.8 171.6 132.8 171 132.5C170.5 132.2 170 130 170 127.7C170 122.5 174.8 112.9 180.4 106.8C194.3 91.7 206.7 78.3 208 77C210.9 74.2 214 69.2 214 67.3C214 66.3 212.6 63.5 211 61.1C209.3 58.7 208 55.8 208 54.8C208 52.8 211.1 47.8 214 45C214.8 44.2 218 40.6 220.9 37C236.4 18.5 239.4 17.1 248.9 24.2C250.2 25.2 252.6 26 254.3 26C257.5 26 262.2 21.8 273.4 8.7C276.6 5 279.9 2 280.6 2C281.4 2 282 1.6 282 1C282 0.5 283.4 0 285 0C286.7 0 288 0.5 288 1C288 1.6 288.5 2 289 2C290.6 2 314.6 21.6 315.4 23.5C317.6 29.3 316 32.1 301.6 47.4C296.5 52.8 296 53.8 296 57.9C296 60.9 296.6 63 297.9 64.4C298.9 65.6 300.8 68.3 302 70.4C305.1 76.1 304.6 76.9 283.9 98.7C273.5 109.6 271.2 110.5 263.6 106.5C260.9 105.1 257.8 104 256.7 104C253.8 104 249.3 107.6 241.5 115.9C222.9 135.9 218 140.6 211.1 145.1C207.1 147.8 202.9 150 201.9 150C200.9 150 199.8 150.5 199.5 151C198.6 152.5 193.1 152 188.4 150.1ZM200.7 134.8C209.8 128.4 242 96 242 93.3C242 91.4 225.9 76 223.9 76C222.2 76 214.8 85.5 214.6 87.9C214.5 88.8 211.5 92.4 207.8 95.9C204.1 99.3 200.1 103.7 198.8 105.6C197.5 107.5 195.7 109 194.8 109C192.4 109 183.5 119.4 182 124.1C180.7 127.8 180.8 128.6 182.6 131.9C184.4 135.4 189.8 139 193.1 139C193.9 139 197.4 137.1 200.7 134.8ZM294.9 75.2C296 73.2 295.7 72.4 293.1 69.2C291.5 67.2 288.8 64.2 287.1 62.6C282 57.7 282.7 56 295.1 42.5C307.6 29 309.5 26.6 308.5 25C307.4 23.3 288 7.9 285.3 6.7C282.4 5.4 281.2 6.4 270.9 19.5C259.3 34.3 257.6 36 255.1 36C253.8 36 250 33.8 246.5 31C243 28.3 239.8 26 239.2 26C237.9 26 214 52.4 214 53.9C214 54.8 222.2 62.2 236.3 73.8C243.1 79.5 255.8 90.2 263.2 96.6C269.1 101.7 269.1 101.7 281.5 89.6C288.2 82.9 294.3 76.5 294.9 75.2Z"
            fill="#78A6BC" />
        <path
            d="M8.80047 552.9C8.10047 551 11.1005 531.2 13.6005 521C17.2005 506.7 27.7005 482.2 30.6005 481.3C31.3005 481.1 32.3005 482.3 32.9005 484C33.5005 485.8 34.9005 487.4 36.1005 487.7C37.8005 488.2 38.1005 488.8 37.6005 491.3C37.3005 493 36.3005 495.1 35.5005 496C34.7005 496.9 34.0005 498.2 34.0005 498.9C34.0005 499.6 33.2005 501.5 32.3005 503C30.8005 505.7 30.8005 506.1 32.3005 509.7C34.1005 513.9 34.0005 519.9 31.9005 524.3C30.7005 527 30.8005 527.3 35.1005 531C39.1005 534.6 40.0005 534.9 45.5005 535C50.8005 535 52.0005 535.4 55.3005 538.1C59.0005 541.1 59.4005 541.2 65.3005 540.6C74.5005 539.5 79.6005 538.1 86.7005 534.3C90.3005 532.5 94.4005 531 95.9005 531C97.4005 531 101.2 529.5 104.3 527.6C107.4 525.7 110 524.4 110 524.7C110 525 110.9 524.1 112.1 522.7C113.2 521.2 114.4 520.1 114.8 520.3C115.2 520.4 117.5 519.5 120 518.3C122.5 517.2 128.8 514.3 134 512C151.9 504.1 158.9 500.5 159 499.1C159 498.3 158.2 496.8 157.3 495.8C156.3 494.7 154.4 491.1 153 487.7C150.6 481.8 150.2 481.4 145.5 479.8C136.2 476.7 125.6 470.7 124.2 467.7C123 465.1 121.3 464.5 116.8 464.9C115.9 465 113.7 464.4 112 463.5C110.3 462.6 108.4 462.2 107.8 462.6C107.2 463 107 462.9 107.3 462.3C108 461.1 105.3 459.7 104.1 460.5C103.7 460.7 101.6 459.1 99.5005 457C96.6005 454 94.8005 453 92.5005 453C90.8005 453 89.0005 452.6 88.4005 452C87.1005 450.7 78.1005 454.1 75.9005 456.9C73.5005 459.8 72.6005 459.6 69.1005 455.1C65.5005 450.6 65.0005 445.8 67.6005 440.5C68.4005 438.6 69.0005 436.1 68.8005 434.8C68.6005 432.9 67.8005 432.4 64.0005 432C61.3005 431.7 58.2005 430.5 56.5005 429.2C53.8005 427.1 53.7005 426.7 54.8005 423.8C55.9005 420.8 55.7005 420.5 50.8005 415.1C48.0005 412 44.4005 409 42.9005 408.3C40.0005 407.1 40.0005 407.1 43.1005 398.8C51.6005 375.6 65.7005 353 71.5005 353C73.5005 353 73.8005 353.5 73.7005 355.7C73.5005 357.8 74.1005 358.6 76.2005 359.4C78.5005 360.2 80.0005 359.8 85.1005 357.2C92.0005 353.6 95.0005 353.3 103.3 355.5C110.2 357.3 113.6 357.4 119.5 355.9C122.8 355.1 126.5 355.1 133.7 355.9C139.1 356.5 161.6 357.2 183.6 357.5C206.2 357.8 224.9 358.4 226.4 359C231.3 360.8 252.3 360.2 256 358C258 356.9 264.1 356.6 287 356.5C315.5 356.5 315.5 356.5 315.8 361.1C316 364.2 315.3 367.9 313.6 372.2C312.3 375.8 310.5 381.4 309.7 384.7C307.6 392.6 296.8 415 293.3 418.6C291.7 420.2 287.4 425.3 283.8 430C273 443.6 270.7 446.1 269.2 445.1C268.1 444.5 268.1 443.5 268.9 440.4C269.8 437.1 269.7 436.3 268.3 435.2C267.2 434.4 266.3 434.3 265.6 435C265.1 435.5 264 436 263.3 436C262.5 436 259.5 437.6 256.5 439.5C252.3 442.2 251 443.5 251 445.4C251 448.1 247.4 451.3 240.2 454.9C236.6 456.7 235.4 456.9 232.2 456C227 454.6 226.4 454.7 223.4 457.5C221.9 458.9 219.5 460 218.1 460C216.3 460 214.4 461.2 212 464.1C209.2 467.3 207.5 468.4 203.7 469.1C201 469.6 198 469.6 196.6 469.1C194.4 468.2 194.3 468.3 194.8 472.9C195.2 477.5 195.1 477.7 190 482.3C186.9 485.1 183.8 487 182.4 487C181.1 487 180 487.5 180 488C180 488.6 181.1 489 182.5 489C183.9 489 187.3 490.1 190.1 491.5C195 494.1 195 494.1 194.9 499.2C194.7 504 194.5 504.4 190.1 507.2C181.9 512.5 154.9 525.1 143.5 529C137.5 531.1 127.2 534.7 120.7 537C103 543.2 99.7005 543.9 96.0005 542.4C91.6005 540.5 78.9005 540.6 68.5005 542.6C63.6005 543.5 57.2005 544.4 54.4005 544.4C50.5005 544.5 48.3005 545.2 45.1005 547.4C42.8005 549 40.5005 551 40.0005 551.9C38.8005 554.1 9.60047 555 8.80047 552.9ZM147.1 463.3C150.8 460.7 151 460.2 150.5 456.7C149.8 452.1 153.7 444.7 158 442.5C159.6 441.7 161.2 440.1 161.5 439C162.2 436.9 165.3 434.6 174.5 429.6C177.3 428 182.4 424.9 186 422.5C189.6 420.2 193.2 418 194.2 417.7C196 417.1 196 413.4 194.2 406.9C192 398.6 184.6 393.4 183.8 399.7C183.6 401.1 182.9 402.5 182.2 402.8C181.1 403.1 181 402.8 181.9 401.2C183.5 398.2 183.3 397.2 181 396.5C179 395.9 179 395.9 181 393.3C182.1 391.9 183 389.5 183 387.9C183 384.1 187 376.2 189.2 375.4C192.1 374.5 198.4 363.9 197.3 362C195.3 358.9 139 359.2 136.9 362.3C135.4 364.4 137.2 375.5 139.6 379.2C140.9 381.3 142 383.2 142 383.5C142 384.1 146.1 388.1 150.4 391.8C152.5 393.6 153 394.7 152.5 396.3C152.1 397.5 151.6 399.9 151.3 401.5C150.1 409.4 146.8 417 143.4 420C141.1 422 139.4 424.7 138.4 428C137.6 430.8 136.4 433 135.8 433C135.2 433 135 434 135.3 435.3C135.6 436.5 136.1 438.5 136.4 439.8C136.7 441.3 136.4 442.3 135.5 442.7C134.7 443 134 443.9 134 444.6C134 445.4 133.4 446.3 132.6 446.6C131.1 447.2 131.3 450.7 133 454.1C134.1 456.2 142 465.6 142.8 465.9C143 466 145 464.8 147.1 463.3ZM282.6 410.8C287.3 406.9 292.1 401.9 293.3 399.8C298.8 390 300.1 386.9 303 377.7C304.7 372.2 305.9 367.2 305.6 366.4C303.9 361.9 295.3 367.5 288.3 377.7C283.3 385 283.5 384.6 280.6 391.2C279.3 394.3 277.2 397.7 276.1 398.7C274.9 399.6 274 401.2 274 402.1C274 403.1 273.1 405.9 272 408.4C270 413.1 270.5 418 273 418C273.5 418 277.9 414.8 282.6 410.8Z"
            fill="#F2942D" />
        <path
            d="M224 355C224 354.4 231 354 243 354C255 354 262 354.4 262 355C262 355.6 255 356 243 356C231 356 224 355.6 224 355Z"
            fill="#F2942D" />
        <path
            d="M39.1994 551.4C39.3994 550.4 41.6994 548.2 44.3994 546.3C48.3994 543.5 50.1994 543 53.8994 543.1C56.3994 543.2 62.5994 542.5 67.4994 541.5C77.3994 539.6 91.6994 539.4 96.7994 541.2C98.4994 541.9 99.9994 542.7 99.9994 543C99.9994 543.3 97.3994 544.2 94.2994 544.8C91.0994 545.5 85.4994 546.8 81.8994 547.5C74.2994 549.2 56.9994 551.6 46.1994 552.4C39.6994 553 38.8994 552.8 39.1994 551.4Z"
            fill="#EC8129" />
        <path
            d="M193.2 503.1C192.5 502.7 192.4 501.9 193 501C193.6 500.2 194 498.5 194 497.3C194 494.3 185 489.5 180.8 490.4C177.8 491 177.3 490.1 179.1 486.9C179.8 485.6 180.7 485.1 181.9 485.5C184.7 486.4 194 477.6 194 474.1C194 472.6 193.6 471 193 470.4C192.5 469.9 192.4 468.9 192.9 468.1C193.6 467.1 194.5 467 196.6 467.7C201.7 469.4 207 467.7 210.9 463.2C213.4 460.4 215.5 459 217.8 458.6C219.7 458.4 221.7 457.5 222.3 456.8C225.2 453.4 226.5 453.1 231 454.4C235.1 455.6 235.9 455.6 239.5 453.8C246.4 450.3 250 447.1 250 444.4C250 442.5 251.3 441.2 255.5 438.5C258.5 436.6 261.5 435 262.3 435C263 435 264.1 434.5 264.8 433.8C265.7 432.9 266.6 432.9 268.5 433.8C271.2 435.1 271.4 435.9 270.1 440.7C269.5 442.8 269.5 444 270.2 444.2C271.6 444.7 251.4 464.4 240.8 472.9C220.9 488.8 195.8 504.7 193.2 503.1Z"
            fill="#EC8129" />
        <path
            d="M55.0995 495.3C50.6995 492.6 50.6995 492.6 46.5995 494.8C43.4995 496.4 41.5995 496.8 38.6995 496.4C34.7995 495.7 34.7995 495.5 36.6995 490.4C36.8995 489.8 36.1995 489 35.0995 488.7C32.6995 488.1 29.8995 482.1 31.0995 480C31.4995 479.2 36.7995 472.3 42.8995 464.7C48.9995 457.2 53.9995 450.4 53.9995 449.7C53.9995 446.9 51.4995 446 43.9995 446C34.4995 446 29.2995 445.1 28.5995 443.5C27.9995 441.8 31.4995 428 33.4995 424C34.2995 422.4 36.1995 417.8 37.5995 413.8C39.0995 409.8 40.2995 406.4 40.4995 406.2C41.3995 405.2 47.5995 409.5 51.9995 414.3C57.0995 419.9 57.2995 420.3 56.1995 423.2C55.1995 426 55.2995 426.5 57.6995 428.4C59.1995 429.5 62.4995 430.7 64.9995 431C69.2995 431.5 69.4995 431.7 69.7995 434.8C69.9995 436.7 69.3995 439.7 68.5995 441.5C66.1995 446.4 66.5995 449.8 70.0995 454.1C73.1995 458 73.1995 458 75.0995 455.6C76.1995 454.3 78.3995 452.9 79.9995 452.5C81.6995 452.1 82.9995 451.5 82.9995 451.1C82.9995 450 88.1995 449.9 89.5995 451.1C90.3995 451.7 91.9995 452 93.3995 451.6C95.2995 451.1 96.5995 452 100.599 456.3C103.299 459.1 107.499 462.6 109.999 463.9C112.499 465.2 114.599 466.4 114.799 466.5C115.399 467 109.699 476.7 107.199 479.4C102.599 484.3 92.8995 491 90.2995 491C88.9995 491 86.4995 490.3 84.7995 489.4C81.8995 487.9 81.5995 487.9 76.5995 491.1C64.7995 498.6 61.3995 499.2 55.0995 495.3ZM68.9995 485.5C73.0995 483.4 72.7995 480.5 67.9995 476.1C63.7995 472.3 62.8995 469.1 65.4995 467C66.3995 466.3 67.9995 464.4 69.0995 462.9C71.0995 460 71.0995 460 67.8995 456C64.5995 451.9 64.5995 451.9 62.3995 455.6C61.1995 457.6 58.3995 461.1 56.1995 463.4C50.4995 469.4 43.9995 478.6 43.9995 480.8C43.9995 484.1 46.6995 485.3 53.9995 485.4C57.7995 485.5 61.1995 485.8 61.5995 486.3C62.7995 487.4 65.8995 487.1 68.9995 485.5Z"
            fill="#EC8129" />
        <path
            d="M229.8 361C227.2 360.6 224.7 359.9 224.2 359.6C223.7 359.3 205 358.8 182.6 358.5C160.3 358.3 138.1 357.6 133.4 357C127 356.2 123.4 356.2 119.6 357.1C114.1 358.3 109.3 358 99.3004 356C93.1004 354.7 93.0004 354.7 86.9004 357.8C79.9004 361.4 76.2004 361.8 73.0004 359.2C71.0004 357.6 70.9004 357.1 72.0004 355.1C73.2004 352.7 73.2004 352.7 129.4 353.4C242.5 354.7 270.5 355.2 271.5 355.8C272.9 356.7 268.4 357.8 263 357.9C260.5 358 257.5 358.7 256.3 359.5C254.9 360.5 252.3 361 248.8 360.8C245.9 360.7 241.5 360.9 239 361.2C236.5 361.6 232.4 361.5 229.8 361Z"
            fill="#EC8129" />
        <path
            d="M49.5005 486.8C44.2005 485 43.5005 484.4 43.2005 481.2C42.9005 478.7 44.0005 476.6 48.3005 470.8C51.3005 466.8 54.9005 462.4 56.4005 461C57.9005 459.6 60.1005 456.8 61.3005 454.8C62.4005 452.7 63.9005 451 64.6005 451C65.2005 451 67.4005 453.1 69.3005 455.6C73.0005 460.3 73.0005 460.3 69.7005 464.2C64.1005 471.1 64.1005 470.7 68.8005 474.9C74.2005 479.8 74.6005 484.1 70.0005 486.5C66.6005 488.2 61.4005 488.5 60.4005 486.9C59.9005 486 58.3005 486.1 53.8005 487.4C53.1005 487.6 51.2005 487.3 49.5005 486.8Z"
            fill="#E0752D" />
        <path
            d="M262.399 97.8002C251.899 88.7002 240.699 79.3002 235.499 75.1002C225.999 67.4002 212.699 55.5002 212.299 54.3002C211.599 52.4002 236.799 25.0002 239.199 25.0002C240.299 25.0002 243.999 27.2002 247.499 30.0002C250.999 32.7002 254.399 35.0002 255.099 35.0002C256.599 35.0002 259.199 32.1002 269.899 18.5002C274.199 13.0002 278.899 7.50023 280.299 6.20023C282.699 4.00023 282.899 3.90023 285.799 5.40023C289.199 7.20023 308.399 22.2002 309.499 24.0002C310.999 26.4002 308.599 30.0002 296.999 42.5002C290.399 49.7002 284.999 56.1002 284.999 56.8002C284.999 57.6002 287.699 61.1002 290.999 64.7002C297.199 71.6002 297.699 72.7002 295.899 76.3002C294.699 78.6002 270.299 103 269.099 103C268.799 103 265.699 100.6 262.399 97.8002ZM277.999 83.8002C287.099 73.7002 287.099 73.7002 282.599 69.1002C274.199 60.5002 275.199 55.8002 288.499 42.0002C301.199 28.9002 301.199 28.9002 295.799 23.7002C288.999 17.2002 285.199 14.0002 284.399 14.0002C283.099 14.0002 261.899 36.4002 260.999 38.7002C259.099 43.4002 248.399 42.9002 243.799 38.0002C242.299 36.3002 240.199 35.0002 238.999 35.0002C236.899 35.0002 227.199 44.2002 222.899 50.1002C221.099 52.7002 221.099 52.7002 227.399 58.6002C230.899 61.9002 238.599 68.6002 244.499 73.5002C250.499 78.5002 257.999 85.1002 261.199 88.3002C264.399 91.4002 267.499 94.0002 267.999 94.0002C268.499 94.0002 272.999 89.4002 277.999 83.8002Z"
            fill="#607A86" />
        <path fill-rule="evenodd" clip-rule="evenodd"
            d="M179.642 166.779C172.393 174.92 168 185.261 168 194.942C168 213.645 188.429 223.766 202.048 211.884C209.517 205.504 209.956 195.382 203.366 180.42C195.019 161.498 188.209 157.537 179.642 166.779Z"
            fill="#FC7A11" />
        <path fill-rule="evenodd" clip-rule="evenodd"
            d="M182.568 175.215C177.856 180.691 175 187.648 175 194.161C175 206.743 188.279 213.552 197.131 205.559C201.986 201.266 202.272 194.457 197.988 184.392C192.562 171.662 188.136 168.998 182.568 175.215Z"
            fill="#EE5001" />
        <path d="M232.5 38L241.5 33.5L247.5 42L232 47L232.5 38Z" fill="#F7F8F8" />
        <path d="M280.5 15.5L258.5 39L257.5 41.5L261.5 44L280.5 27.5L285 19L280.5 15.5Z" fill="#F7F8F8" />
        <path fill-rule="evenodd" clip-rule="evenodd"
            d="M267.639 24.3636C261.234 31.669 255.363 37.7271 254.473 37.7271C253.761 37.7271 250.737 35.7671 247.712 33.2726C244.866 30.7781 241.841 28.8181 241.13 28.8181C239.173 28.8181 217.823 53.0506 218.001 55.0106C218.001 55.7234 229.387 65.8796 243.087 77.4614C271.553 101.694 267.283 101.159 284.184 81.7377L293.08 71.4032L286.319 64.4542L279.737 57.6833L288.276 48.0616C293.08 42.8944 298.773 36.4799 300.908 33.9853L305 29.5308L293.436 20.2654C287.209 15.0982 281.338 11 280.626 11C279.914 11.1782 274.043 17.0582 267.639 24.3636ZM282.227 22.76C281.16 24.72 276.356 30.0654 271.375 35.0544C264.258 41.8253 261.945 43.4289 260.166 41.6471C258.387 39.8653 260.166 37.3708 267.639 29.3526C272.976 23.6509 278.135 18.4837 279.203 17.7709C282.049 15.6328 284.184 19.1964 282.227 22.76ZM244.332 38.4398C246.111 40.3998 245.4 41.4689 240.774 43.7853C233.479 47.3489 229.921 44.8543 234.725 39.5089C238.461 35.2326 241.485 35.0544 244.332 38.4398Z"
            fill="#39545E" />
        <path
            d="M184.93 175.652C185.863 178.586 182.53 183.519 179.33 183.519C176.93 183.519 177.196 178.186 179.863 175.252C182.663 172.186 183.863 172.186 184.93 175.652Z"
            fill="#F8F6F2" />
        <path
            d="M181.596 189.519C182.93 191.119 182.93 191.919 181.596 193.652C180.13 195.386 179.596 195.386 177.996 193.786C176.263 192.052 176.93 187.519 178.93 187.519C179.463 187.519 180.663 188.452 181.596 189.519Z"
            fill="#F8F6F2" />
    </g>
    <defs>
        <clipPath id="clip0_21713_3050">
            <rect width="330" height="560" fill="white" />
        </clipPath>
    </defs>
</svg>