<svg width="512" height="512" viewBox="0 0 512 512" fill="none" xmlns="http://www.w3.org/2000/svg">
    <g clip-path="url(#clip0_21721_3237)">
        <path fill-rule="evenodd" clip-rule="evenodd"
            d="M297.181 362.2V348.724C287.091 346.149 278.144 340.275 271.753 332.031C265.363 323.787 261.894 313.642 261.894 303.2C261.894 292.758 265.363 282.613 271.753 274.369C278.144 266.125 287.091 260.251 297.181 257.676V149.8C297.181 146.67 298.421 143.669 300.627 141.456C302.834 139.243 305.826 138 308.947 138C312.068 138 315.06 139.243 317.267 141.456C319.473 143.669 320.713 146.67 320.713 149.8V257.676C330.803 260.251 339.75 266.125 346.141 274.369C352.531 282.613 356 292.758 356 303.2C356 313.642 352.531 323.787 346.141 332.031C339.75 340.275 330.803 346.149 320.713 348.724V362.2C320.713 365.33 319.473 368.331 317.267 370.544C315.06 372.757 312.068 374 308.947 374C305.826 374 302.834 372.757 300.627 370.544C298.421 368.331 297.181 365.33 297.181 362.2ZM325.587 286.512C321.174 282.086 315.188 279.6 308.947 279.6C302.706 279.6 296.72 282.086 292.307 286.512C287.894 290.938 285.415 296.941 285.415 303.2C285.415 309.459 287.894 315.462 292.307 319.888C296.72 324.314 302.706 326.8 308.947 326.8C315.188 326.8 321.174 324.314 325.587 319.888C330 315.462 332.479 309.459 332.479 303.2C332.479 296.941 330 290.938 325.587 286.512ZM191.287 362.2V254.324C181.197 251.749 172.25 245.875 165.859 237.631C159.469 229.387 156 219.242 156 208.8C156 198.358 159.469 188.213 165.859 179.969C172.25 171.725 181.197 165.851 191.287 163.276V149.8C191.287 146.67 192.527 143.669 194.733 141.456C196.94 139.243 199.932 138 203.053 138C206.174 138 209.166 139.243 211.373 141.456C213.579 143.669 214.819 146.67 214.819 149.8V163.276C224.909 165.851 233.856 171.725 240.247 179.969C246.637 188.213 250.106 198.358 250.106 208.8C250.106 219.242 246.637 229.387 240.247 237.631C233.856 245.875 224.909 251.749 214.819 254.324V362.2C214.819 365.33 213.579 368.331 211.373 370.544C209.166 372.757 206.174 374 203.053 374C199.932 374 196.94 372.757 194.733 370.544C192.527 368.331 191.287 365.33 191.287 362.2ZM219.693 192.112C215.28 187.686 209.294 185.2 203.053 185.2C196.812 185.2 190.826 187.686 186.413 192.112C182 196.538 179.521 202.541 179.521 208.8C179.521 215.059 182 221.062 186.413 225.488C190.826 229.914 196.812 232.4 203.053 232.4C209.294 232.4 215.28 229.914 219.693 225.488C224.106 221.062 226.585 215.059 226.585 208.8C226.585 202.541 224.106 196.538 219.693 192.112Z"
            fill="#F58517" />
        <path
            d="M256 82.2862H443.822C416.149 52.1912 381.637 29.2015 343.203 15.2609C304.769 1.32033 263.544 -3.16135 223.013 2.1948L160 111.333C188.421 92.3661 221.831 82.2573 256 82.2862ZM256 429.715H68.1783C95.8511 459.81 130.363 482.8 168.797 496.74C207.231 510.681 248.456 515.162 288.988 509.806L352 400.659C323.58 419.631 290.17 429.743 256 429.715ZM429.714 256.001C429.705 286.472 421.623 316.397 406.29 342.73L406.464 342.839L404.736 345.857L312.503 505.601C352.337 496.511 389.429 478.051 420.7 451.754C451.971 425.457 476.519 392.081 492.306 354.396L429.157 245.029C429.385 248.686 429.714 252.343 429.714 256.001ZM82.2858 256.001C82.2858 225.518 90.3772 195.585 105.728 169.244L105.545 169.143L199.497 6.40051C159.662 15.4914 122.569 33.9523 91.2985 60.251C60.0275 86.5497 35.4801 119.928 19.6938 157.614L82.8435 266.972C82.6149 263.315 82.2858 259.703 82.2858 256.001ZM459.228 100.572H333.111C363.683 115.818 389.113 139.693 406.254 169.244L406.437 169.143L500.489 331.987C512.624 292.926 515.21 251.524 508.03 211.256C500.851 170.989 484.115 133.032 459.228 100.572ZM105.71 342.721L105.527 342.83L103.333 338.99L11.5109 180.014C-0.623936 219.075 -3.21004 260.477 3.96971 300.745C11.1495 341.012 27.8855 378.969 52.7726 411.429H178.889C148.3 396.179 122.856 372.289 105.71 342.721Z"
            fill="#F58517" />
    </g>
    <defs>
        <clipPath id="clip0_21721_3237">
            <rect width="512" height="512" fill="white" />
        </clipPath>
    </defs>
</svg>