<svg width="512" height="512" viewBox="0 0 512 512" fill="none" xmlns="http://www.w3.org/2000/svg">
    <path
        d="M256.001 237.714C266.099 237.714 274.286 229.528 274.286 219.429C274.286 209.33 266.099 201.143 256.001 201.143C245.902 201.143 237.715 209.33 237.715 219.429C237.715 229.528 245.902 237.714 256.001 237.714Z"
        fill="#F58517" />
    <path
        d="M100.572 256C100.572 341.842 170.159 411.428 256.001 411.428C341.843 411.428 411.429 341.842 411.429 256C411.429 170.158 341.843 100.571 256.001 100.571C170.195 100.663 100.664 170.194 100.572 256ZM329.144 257.298V173.714C329.144 171.289 330.107 168.964 331.822 167.249C333.536 165.535 335.862 164.571 338.287 164.571C340.711 164.571 343.037 165.535 344.752 167.249C346.466 168.964 347.429 171.289 347.429 173.714V257.298C355.27 259.294 362.223 263.845 367.188 270.233C372.154 276.62 374.849 284.481 374.849 292.571C374.849 300.662 372.154 308.522 367.188 314.91C362.223 321.298 355.27 325.849 347.429 327.844V338.286C347.429 340.71 346.466 343.036 344.752 344.751C343.037 346.465 340.711 347.428 338.287 347.428C335.862 347.428 333.536 346.465 331.822 344.751C330.107 343.036 329.144 340.71 329.144 338.286V327.844C321.303 325.849 314.351 321.298 309.385 314.91C304.419 308.522 301.724 300.662 301.724 292.571C301.724 284.481 304.419 276.62 309.385 270.233C314.351 263.845 321.303 259.294 329.144 257.298ZM246.858 184.155V173.714C246.858 171.289 247.821 168.964 249.536 167.249C251.25 165.535 253.576 164.571 256.001 164.571C258.426 164.571 260.751 165.535 262.466 167.249C264.18 168.964 265.144 171.289 265.144 173.714V184.155C272.984 186.151 279.937 190.702 284.902 197.09C289.868 203.478 292.564 211.338 292.564 219.428C292.564 227.519 289.868 235.379 284.902 241.767C279.937 248.155 272.984 252.706 265.144 254.702V338.286C265.144 340.71 264.18 343.036 262.466 344.751C260.751 346.465 258.426 347.428 256.001 347.428C253.576 347.428 251.25 346.465 249.536 344.751C247.821 343.036 246.858 340.71 246.858 338.286V254.702C239.017 252.706 232.065 248.155 227.099 241.767C222.134 235.379 219.438 227.519 219.438 219.428C219.438 211.338 222.134 203.478 227.099 197.09C232.065 190.702 239.017 186.151 246.858 184.155ZM164.572 257.298V173.714C164.572 171.289 165.536 168.964 167.25 167.249C168.965 165.535 171.29 164.571 173.715 164.571C176.14 164.571 178.465 165.535 180.18 167.249C181.895 168.964 182.858 171.289 182.858 173.714V257.298C190.699 259.294 197.651 263.845 202.617 270.233C207.582 276.62 210.278 284.481 210.278 292.571C210.278 300.662 207.582 308.522 202.617 314.91C197.651 321.298 190.699 325.849 182.858 327.844V338.286C182.858 340.71 181.895 343.036 180.18 344.751C178.465 346.465 176.14 347.428 173.715 347.428C171.29 347.428 168.965 346.465 167.25 344.751C165.536 343.036 164.572 340.71 164.572 338.286V327.844C156.731 325.849 149.779 321.298 144.814 314.91C139.848 308.522 137.152 300.662 137.152 292.571C137.152 284.481 139.848 276.62 144.814 270.233C149.779 263.845 156.731 259.294 164.572 257.298Z"
        fill="#F58517" />
    <path
        d="M173.713 310.857C183.812 310.857 191.999 302.67 191.999 292.571C191.999 282.472 183.812 274.286 173.713 274.286C163.615 274.286 155.428 282.472 155.428 292.571C155.428 302.67 163.615 310.857 173.713 310.857Z"
        fill="#F58517" />
    <path
        d="M338.286 310.857C348.385 310.857 356.571 302.67 356.571 292.571C356.571 282.472 348.385 274.286 338.286 274.286C328.187 274.286 320 282.472 320 292.571C320 302.67 328.187 310.857 338.286 310.857Z"
        fill="#F58517" />
    <path
        d="M256 82.2862H443.822C416.149 52.1912 381.637 29.2015 343.203 15.2609C304.769 1.32033 263.544 -3.16135 223.013 2.1948L160 111.333C188.421 92.3661 221.831 82.2573 256 82.2862ZM256 429.715H68.1783C95.8511 459.81 130.363 482.8 168.797 496.74C207.231 510.681 248.456 515.162 288.988 509.806L352 400.659C323.58 419.631 290.17 429.743 256 429.715ZM429.714 256.001C429.705 286.472 421.623 316.397 406.29 342.73L406.464 342.839L404.736 345.857L312.503 505.601C352.337 496.511 389.429 478.051 420.7 451.754C451.971 425.457 476.519 392.081 492.306 354.396L429.157 245.029C429.385 248.686 429.714 252.343 429.714 256.001ZM82.2858 256.001C82.2858 225.518 90.3772 195.585 105.728 169.244L105.545 169.143L199.497 6.40051C159.662 15.4914 122.569 33.9523 91.2985 60.251C60.0275 86.5497 35.4801 119.928 19.6938 157.614L82.8435 266.972C82.6149 263.315 82.2858 259.703 82.2858 256.001ZM459.228 100.572H333.111C363.683 115.818 389.113 139.693 406.254 169.244L406.437 169.143L500.489 331.987C512.624 292.926 515.21 251.524 508.03 211.256C500.851 170.989 484.115 133.032 459.228 100.572ZM105.71 342.721L105.527 342.83L103.333 338.99L11.5109 180.014C-0.623936 219.075 -3.21004 260.477 3.96971 300.745C11.1495 341.012 27.8855 378.969 52.7726 411.429H178.889C148.3 396.179 122.856 372.289 105.71 342.721Z"
        fill="#F58517" />
</svg>