<?xml version="1.0" standalone="no"?>
<!DOCTYPE svg PUBLIC "-//W3C//DTD SVG 20010904//EN"
 "http://www.w3.org/TR/2001/REC-SVG-20010904/DTD/svg10.dtd">
<svg version="1.0" xmlns="http://www.w3.org/2000/svg"
 width="700.000000pt" height="700.000000pt" viewBox="0 0 700.000000 700.000000"
 preserveAspectRatio="xMidYMid meet">
<metadata>
Created by potrace 1.14, written by Peter Selinger 2001-2017
</metadata>
<g transform="translate(0.000000,700.000000) scale(0.100000,-0.100000)"
fill="#000000" stroke="none">
<path d="M3298 6995 c-1 -1 -41 -5 -88 -9 -166 -12 -152 -3 -229 -135 -38 -64
-112 -192 -166 -286 -128 -221 -239 -415 -409 -708 -75 -131 -145 -253 -155
-270 -10 -18 -28 -49 -41 -70 l-22 -38 90 56 c50 30 94 55 98 55 4 0 23 10 43
22 20 13 38 23 41 24 6 1 39 15 120 51 36 16 97 40 135 53 39 12 87 29 108 36
87 32 342 80 482 91 50 4 692 7 1428 7 l1338 0 -123 121 c-329 323 -664 548
-1084 728 -246 105 -583 202 -804 232 -19 3 -46 7 -60 10 -13 2 -54 7 -90 11
-36 3 -78 8 -95 11 -33 5 -511 13 -517 8z"/>
<path d="M2550 6865 c-180 -53 -214 -65 -370 -127 -429 -173 -816 -432 -1155
-772 -308 -309 -539 -640 -709 -1016 l-47 -103 47 -81 c25 -45 58 -101 72
-126 14 -25 73 -128 132 -230 59 -102 117 -201 128 -220 10 -19 43 -75 72
-125 29 -49 65 -112 81 -140 15 -27 95 -166 178 -308 l150 -259 -2 119 c-1
129 9 290 23 365 5 26 12 69 16 95 9 70 67 275 109 389 47 126 147 326 262
524 49 85 151 261 225 390 75 129 187 323 249 430 61 107 123 215 137 240 14
25 35 61 47 80 12 19 33 55 47 80 14 25 119 207 233 405 242 419 245 424 245
430 0 9 -25 3 -170 -40z"/>
<path d="M4560 5624 c0 -1 24 -14 53 -29 212 -111 484 -321 632 -490 33 -38
65 -73 70 -79 99 -106 289 -408 595 -951 20 -36 291 -504 645 -1115 142 -245
263 -455 269 -467 6 -13 13 -23 16 -23 15 0 107 397 124 533 11 84 18 141 22
167 9 49 11 527 3 605 -15 155 -27 247 -34 275 -2 8 -7 35 -10 60 -34 247
-168 657 -307 935 -92 184 -242 429 -343 560 -16 20 -28 20 -875 20 -473 0
-860 -1 -860 -1z"/>
<path d="M2737 5105 c-55 -14 -101 -57 -115 -108 -5 -17 -8 -75 -7 -129 l1
-96 -67 -27 c-428 -168 -552 -700 -241 -1036 68 -74 162 -137 253 -168 l54
-19 0 -759 c1 -795 0 -779 43 -823 35 -36 69 -50 118 -50 64 0 111 29 140 87
21 40 21 51 22 774 0 404 1 743 1 754 1 16 13 25 54 37 173 53 328 213 394
407 37 105 39 271 5 379 -59 188 -188 333 -362 406 -36 15 -71 30 -78 34 -10
5 -14 37 -16 117 -1 90 -5 117 -21 144 -40 69 -103 95 -178 76z m139 -653 c84
-26 172 -112 200 -194 47 -144 6 -281 -110 -370 -217 -163 -529 9 -509 282 15
204 221 343 419 282z"/>
<path d="M4140 5087 c-19 -12 -43 -38 -54 -57 -21 -34 -21 -47 -22 -788 0
-502 -4 -756 -11 -763 -6 -6 -17 -11 -24 -12 -8 -2 -45 -17 -83 -35 -215 -101
-353 -312 -362 -553 -8 -212 77 -396 246 -531 48 -38 142 -88 200 -107 l35
-11 -2 -102 c-1 -106 9 -152 45 -191 67 -74 193 -61 250 26 24 35 26 49 28
146 2 136 1 131 21 131 28 0 175 77 224 117 101 84 189 225 220 353 16 70 16
218 0 290 -7 30 -31 93 -54 140 -70 145 -227 282 -370 324 l-42 12 0 759 c-1
818 1 782 -53 833 -51 49 -137 57 -192 19z m201 -1933 c211 -82 271 -356 113
-519 -72 -75 -137 -101 -249 -99 -265 4 -401 350 -212 538 100 99 225 128 348
80z"/>
<path d="M143 4493 c-6 -21 -23 -83 -37 -138 -21 -84 -32 -138 -61 -295 -44
-240 -55 -749 -21 -971 3 -13 7 -46 11 -72 4 -27 8 -58 11 -70 2 -12 6 -39 10
-62 26 -182 115 -486 208 -713 105 -257 286 -575 441 -777 16 -20 28 -20 875
-20 473 0 860 1 860 2 0 2 -23 15 -52 29 -122 62 -332 204 -432 293 -243 216
-404 421 -601 766 -38 66 -107 185 -153 265 -47 80 -94 163 -107 185 -12 22
-31 56 -42 75 -58 99 -169 290 -191 330 -14 25 -36 62 -49 82 -12 21 -23 40
-23 42 0 3 -23 41 -50 86 -27 45 -50 83 -50 85 0 1 -113 198 -252 436 -138
239 -256 444 -262 456 -15 31 -19 29 -33 -14z"/>
<path d="M5872 3476 c0 -90 -3 -172 -6 -183 -3 -10 -8 -49 -11 -88 -12 -144
-78 -400 -147 -575 -28 -70 -130 -281 -175 -360 -11 -19 -95 -165 -187 -323
-92 -159 -175 -303 -184 -320 -10 -18 -25 -43 -33 -57 -17 -27 -363 -625 -386
-669 -8 -14 -23 -39 -33 -56 -10 -16 -25 -41 -33 -55 -26 -48 -60 -106 -132
-230 -273 -471 -267 -461 -261 -467 6 -6 174 40 320 89 205 68 453 179 656
295 104 59 312 203 429 297 130 104 377 342 473 456 216 256 411 566 542 865
l27 59 -107 186 c-59 102 -115 199 -124 215 -9 17 -84 145 -165 285 -81 140
-157 271 -168 290 -25 46 -109 189 -124 215 -7 11 -15 26 -19 33 -4 7 -39 69
-79 137 l-72 124 -1 -163z"/>
<path d="M4750 1483 c-60 -39 -277 -153 -325 -171 -16 -6 -55 -20 -85 -32
-164 -63 -333 -106 -530 -135 -102 -16 -385 -19 -1548 -19 -727 -1 -1322 -4
-1322 -7 0 -9 235 -236 305 -294 95 -80 86 -72 185 -145 350 -259 747 -448
1183 -565 96 -26 114 -30 172 -41 17 -3 48 -9 70 -14 22 -5 60 -11 85 -15 25
-3 52 -8 60 -10 20 -5 111 -15 230 -25 104 -9 526 -5 605 5 129 17 86 -37 402
510 156 270 289 500 296 512 6 12 35 61 62 109 28 48 59 103 70 123 12 20 47
81 79 136 72 123 68 115 64 114 -2 0 -28 -16 -58 -36z"/>
</g>
</svg>
