<?xml version="1.0" standalone="no"?>
<!DOCTYPE svg PUBLIC "-//W3C//DTD SVG 20010904//EN"
 "http://www.w3.org/TR/2001/REC-SVG-20010904/DTD/svg10.dtd">
<svg version="1.0" xmlns="http://www.w3.org/2000/svg"
 width="700.000000pt" height="700.000000pt" viewBox="0 0 700.000000 700.000000"
 preserveAspectRatio="xMidYMid meet">
<metadata>
Created by potrace 1.14, written by Peter Selinger 2001-2017
</metadata>
<g transform="translate(0.000000,700.000000) scale(0.100000,-0.100000)"
fill="#000000" stroke="none">
<path d="M3298 6995 c-1 -1 -43 -5 -93 -9 -49 -4 -105 -10 -124 -14 -39 -8 -4
48 -451 -727 -47 -82 -148 -257 -224 -388 -75 -131 -145 -253 -155 -270 -10
-18 -28 -49 -41 -70 l-22 -38 90 56 c50 30 94 55 98 55 4 0 23 10 43 22 20 13
38 23 41 24 6 1 36 14 115 49 71 32 215 85 215 80 0 -2 15 2 34 10 72 30 336
80 481 92 50 4 692 7 1428 7 l1338 0 -123 121 c-161 159 -296 272 -433 365
-27 18 -52 36 -55 39 -3 3 -14 12 -25 18 -187 115 -246 149 -335 195 -312 162
-737 302 -1040 343 -19 3 -46 7 -60 10 -13 2 -54 7 -90 11 -36 3 -78 8 -95 11
-33 5 -511 13 -517 8z"/>
<path d="M2610 6884 c-652 -188 -1135 -468 -1585 -918 -189 -189 -299 -324
-440 -536 -117 -176 -178 -286 -259 -460 l-57 -122 47 -82 c25 -44 58 -101 72
-126 14 -25 73 -128 132 -230 59 -102 117 -201 128 -220 10 -19 43 -75 72
-125 29 -49 65 -112 81 -140 15 -27 95 -166 177 -308 l150 -257 -1 132 c0 147
8 269 23 346 5 28 12 73 16 99 9 70 67 275 109 389 47 126 147 326 262 524 49
85 151 261 225 390 75 129 187 323 249 430 61 107 123 215 137 240 14 25 35
61 47 80 12 19 33 55 47 80 14 25 119 207 233 405 242 419 245 424 245 430 0
8 -21 4 -110 -21z"/>
<path d="M3407 5624 c-1 -1 -45 -5 -97 -9 -52 -3 -97 -8 -100 -10 -3 -1 -27
-6 -54 -9 -95 -13 -336 -77 -401 -106 -11 -5 -49 -21 -85 -36 -135 -55 -394
-205 -465 -271 -11 -10 -37 -31 -59 -47 -59 -44 -234 -222 -302 -306 -298
-373 -467 -847 -468 -1315 0 -89 11 -267 19 -305 2 -13 7 -42 11 -65 3 -22 10
-60 16 -85 5 -25 11 -52 13 -60 27 -132 116 -365 193 -505 211 -385 520 -688
902 -884 303 -156 634 -236 975 -235 84 1 264 12 274 18 3 2 29 6 58 10 89 10
203 38 353 86 207 65 498 231 685 390 161 137 318 320 431 502 54 87 165 308
177 353 3 11 15 47 27 80 12 33 33 101 46 150 23 90 25 100 39 185 4 25 9 54
11 65 22 113 22 458 -1 575 -3 13 -7 42 -10 65 -9 59 -53 241 -75 305 -111
329 -283 605 -529 850 -352 349 -808 562 -1296 605 -72 7 -283 13 -288 9z
m-976 -889 c16 -9 39 -30 49 -48 19 -31 20 -54 20 -617 l0 -586 38 -13 c305
-107 429 -467 256 -739 -61 -95 -166 -177 -256 -202 l-38 -11 0 -85 c0 -98
-14 -135 -63 -164 -41 -25 -83 -25 -124 0 -49 29 -63 66 -63 164 l0 84 -37 12
c-243 78 -390 358 -319 605 45 154 172 288 319 335 l37 12 0 584 c0 646 -2
625 63 664 39 24 78 25 118 5z m1117 4 c53 -18 75 -67 76 -168 l1 -86 50 -19
c157 -59 280 -203 314 -367 49 -235 -90 -485 -314 -564 l-50 -18 0 -571 c0
-314 -1 -583 -3 -598 -5 -37 -57 -86 -98 -94 -50 -9 -100 12 -126 54 l-23 37
0 584 0 584 -35 15 c-98 42 -129 62 -191 123 -254 251 -167 678 166 811 l59
24 2 90 c2 102 14 132 67 158 38 19 63 20 105 5z m1132 -2 c13 -7 35 -28 47
-46 l23 -34 0 -588 0 -589 27 -7 c97 -24 214 -118 277 -222 149 -245 51 -570
-210 -696 -39 -19 -76 -35 -83 -35 -7 0 -11 -27 -11 -80 0 -97 -17 -142 -62
-170 -42 -25 -84 -25 -125 0 -49 29 -63 66 -63 164 l0 84 -49 17 c-59 19 -153
83 -199 134 -151 169 -167 424 -39 610 61 90 173 173 260 195 l27 6 0 586 c0
646 -2 625 63 664 37 23 81 25 117 7z"/>
<path d="M2310 3241 c-113 -36 -182 -128 -182 -241 0 -96 49 -176 137 -223 56
-30 164 -30 221 0 48 26 101 83 121 132 15 34 19 115 9 158 -13 59 -85 141
-144 165 -36 14 -131 19 -162 9z"/>
<path d="M3416 4235 c-125 -44 -194 -187 -152 -313 32 -96 135 -172 231 -172
128 0 239 99 252 226 19 178 -162 319 -331 259z"/>
<path d="M4521 3225 c-153 -72 -193 -273 -78 -393 156 -163 430 -57 429 166 0
78 -25 134 -82 185 -78 70 -175 85 -269 42z"/>
<path d="M4560 5624 c0 -1 24 -14 53 -29 212 -111 484 -321 632 -490 33 -38
65 -73 70 -79 99 -106 289 -408 595 -951 20 -36 291 -504 645 -1115 142 -245
263 -455 269 -467 6 -13 13 -23 16 -23 15 0 107 397 124 533 11 84 18 141 22
167 9 49 11 527 3 605 -15 155 -27 247 -34 275 -2 8 -7 35 -10 60 -11 81 -55
262 -96 400 -78 263 -197 532 -347 785 -34 57 -175 268 -207 310 -16 20 -28
20 -875 20 -473 0 -860 -1 -860 -1z"/>
<path d="M143 4493 c-6 -21 -23 -83 -37 -138 -21 -84 -32 -138 -61 -295 -44
-240 -55 -749 -21 -971 3 -13 7 -46 11 -72 4 -27 8 -58 11 -70 2 -12 6 -39 10
-62 49 -341 235 -839 439 -1175 52 -85 171 -263 210 -315 16 -20 28 -20 875
-20 473 0 860 1 860 2 0 2 -23 15 -52 29 -122 62 -332 204 -432 293 -243 216
-404 421 -601 766 -38 66 -107 185 -153 265 -47 80 -94 163 -107 185 -12 22
-31 56 -43 75 -11 19 -50 87 -86 150 -37 63 -78 135 -92 160 -14 25 -39 66
-55 93 -16 26 -29 49 -29 51 0 3 -23 41 -50 86 -27 45 -50 83 -50 85 0 1 -113
198 -252 436 -138 239 -256 444 -262 456 -15 31 -19 29 -33 -14z"/>
<path d="M5873 3545 c5 -161 -13 -358 -49 -525 -53 -252 -151 -502 -291 -750
-38 -68 -383 -665 -392 -680 -18 -28 -114 -195 -136 -235 -12 -22 -77 -134
-145 -250 -67 -116 -131 -226 -141 -245 -11 -19 -24 -42 -29 -50 -5 -8 -49
-82 -96 -165 -48 -82 -129 -224 -182 -315 -131 -227 -134 -232 -129 -237 3 -2
31 3 63 12 33 9 83 22 112 30 238 66 553 200 802 342 104 59 312 203 429 297
130 104 377 342 473 456 216 256 411 566 542 864 l27 60 -104 180 c-58 100
-113 197 -124 216 -11 19 -87 150 -168 290 -81 140 -158 273 -170 295 -13 22
-46 81 -75 130 -29 50 -63 108 -75 130 -13 22 -51 87 -85 145 l-61 105 4 -100z"/>
<path d="M4750 1483 c-60 -39 -277 -153 -325 -171 -16 -6 -55 -20 -85 -32
-164 -63 -333 -106 -530 -135 -102 -16 -385 -19 -1548 -19 -727 -1 -1322 -4
-1322 -7 0 -9 235 -236 305 -294 95 -80 86 -72 185 -145 345 -255 745 -447
1167 -560 65 -18 127 -34 138 -36 21 -4 34 -7 120 -24 62 -12 95 -17 154 -26
25 -3 57 -8 71 -10 163 -27 706 -25 840 4 33 7 43 23 317 497 156 270 289 500
296 513 14 26 202 351 248 430 17 28 29 52 27 51 -2 0 -28 -16 -58 -36z"/>
</g>
</svg>
